# Blender v2.79 (sub 0) OBJ File: ''
# www.blender.org
mtllib door.mtl
o Door
v -45.700001 15.240500 0.000001
v -45.700001 15.240492 203.199997
v 45.700001 15.240492 203.199997
v 45.700001 15.240500 0.000001
v -45.700001 4.670500 0.000000
v 45.700001 4.670500 0.000000
v 45.700001 4.670491 203.199997
v -45.700001 4.670491 203.199997
vt 0.685900 0.997900
vt 0.009000 0.997900
vt 0.009000 0.693400
vt 0.685900 0.693400
vt 0.092200 0.002000
vt 0.396600 0.002000
vt 0.396600 0.678900
vt 0.092200 0.678900
vt 0.545700 0.003300
vt 0.545700 0.307800
vt 0.510500 0.307800
vt 0.510500 0.003300
vt 0.499400 0.004400
vt 0.499400 0.308900
vt 0.464200 0.308900
vt 0.464200 0.004400
vt 0.445700 0.007500
vt 0.445700 0.684500
vt 0.410500 0.684500
vt 0.410500 0.007500
vt 0.445700 0.007500
vt 0.410500 0.007500
vt 0.410500 0.684500
vt 0.445700 0.684500
vn 0.0000 1.0000 0.0000
vn 0.0000 -1.0000 -0.0000
vn 0.0000 0.0000 -1.0000
vn 0.0000 0.0000 1.0000
vn -1.0000 0.0000 0.0000
vn 1.0000 -0.0000 0.0000
usemtl door
s 1
f 1/1/1 2/2/1 3/3/1 4/4/1
f 5/5/2 6/6/2 7/7/2 8/8/2
f 1/9/3 4/10/3 6/11/3 5/12/3
f 3/13/4 2/14/4 8/15/4 7/16/4
f 2/17/5 1/18/5 5/19/5 8/20/5
f 3/21/6 7/22/6 6/23/6 4/24/6
o Object002
v -45.484798 18.152397 27.782600
v -44.402401 17.703999 27.782600
v -43.954102 16.621698 27.782600
v -44.402401 15.539299 27.782600
v -45.484798 15.090999 27.782600
v -46.567200 15.539299 27.782600
v -47.015499 16.621698 27.782600
v -46.567200 17.703999 27.782600
v -44.402401 17.703999 42.324200
v -43.954102 16.621698 42.324200
v -45.484798 18.152397 42.324200
v -46.567200 17.703999 42.324200
v -47.015499 16.621698 42.324200
v -46.567200 15.539298 42.324200
v -45.484798 15.090998 42.324200
v -44.402401 15.539298 42.324200
v -45.484798 18.152391 156.968307
v -44.402401 17.703993 156.968307
v -43.954102 16.621693 156.968307
v -44.402401 15.539293 156.968307
v -45.484798 15.090993 156.968307
v -46.567200 15.539293 156.968307
v -47.015499 16.621693 156.968307
v -46.567200 17.703993 156.968307
v -44.402401 17.703993 171.509796
v -43.954102 16.621693 171.509796
v -45.484798 18.152391 171.509796
v -46.567200 17.703993 171.509796
v -47.015499 16.621693 171.509796
v -46.567200 15.539292 171.509796
v -45.484798 15.090992 171.509796
v -44.402401 15.539292 171.509796
vt 0.870000 0.878400
vt 0.864200 0.876000
vt 0.861800 0.870300
vt 0.864200 0.864500
vt 0.870000 0.862100
vt 0.875700 0.864500
vt 0.878100 0.870300
vt 0.875700 0.876000
vt 0.717100 0.893200
vt 0.723300 0.893200
vt 0.723300 0.970500
vt 0.717100 0.970500
vt 0.729600 0.893200
vt 0.729600 0.970500
vt 0.735800 0.893200
vt 0.735800 0.970500
vt 0.742000 0.893200
vt 0.742000 0.970500
vt 0.748200 0.893200
vt 0.748200 0.970500
vt 0.754500 0.893200
vt 0.754500 0.970500
vt 0.704600 0.893200
vt 0.710900 0.893200
vt 0.710900 0.970500
vt 0.704600 0.970500
vt 0.867600 0.776200
vt 0.861800 0.773800
vt 0.859400 0.768000
vt 0.861800 0.762300
vt 0.867600 0.759900
vt 0.873300 0.762300
vt 0.875700 0.768000
vt 0.873300 0.773800
vt 0.870000 0.878400
vt 0.864200 0.876000
vt 0.861800 0.870300
vt 0.864200 0.864500
vt 0.870000 0.862100
vt 0.875700 0.864500
vt 0.878100 0.870300
vt 0.875700 0.876000
vt 0.717100 0.893200
vt 0.723300 0.893200
vt 0.723300 0.970500
vt 0.717100 0.970500
vt 0.729600 0.893200
vt 0.729600 0.970500
vt 0.735800 0.893200
vt 0.735800 0.970500
vt 0.742000 0.893200
vt 0.742000 0.970500
vt 0.748200 0.893200
vt 0.748200 0.970500
vt 0.754500 0.893200
vt 0.754500 0.970500
vt 0.704600 0.893200
vt 0.710900 0.893200
vt 0.710900 0.970500
vt 0.704600 0.970500
vt 0.867600 0.776200
vt 0.861800 0.773800
vt 0.859400 0.768000
vt 0.861800 0.762300
vt 0.867600 0.759900
vt 0.873300 0.762300
vt 0.875700 0.768000
vt 0.873300 0.773800
vn 0.0000 0.0000 -1.0000
vn 1.0000 0.0000 0.0000
vn 0.7071 0.7071 0.0000
vn 0.0000 1.0000 0.0000
vn -0.7071 0.7071 0.0000
vn -1.0000 0.0000 0.0000
vn -0.7071 -0.7071 -0.0000
vn 0.0000 -1.0000 -0.0000
vn 0.7071 -0.7071 -0.0000
vn 0.0000 0.0000 1.0000
usemtl door
s 1
f 9/25/7 10/26/7 11/27/7 12/28/7 13/29/7 14/30/7 15/31/7 16/32/7
f 11/33/8 10/34/9 17/35/9 18/36/8
f 10/34/9 9/37/10 19/38/10 17/35/9
f 9/37/10 16/39/11 20/40/11 19/38/10
f 16/39/11 15/41/12 21/42/12 20/40/11
f 15/41/12 14/43/13 22/44/13 21/42/12
f 14/43/13 13/45/14 23/46/14 22/44/13
f 13/47/14 12/48/15 24/49/15 23/50/14
f 12/48/15 11/33/8 18/36/8 24/49/15
f 21/51/16 22/52/16 23/53/16 24/54/16 18/55/16 17/56/16 19/57/16 20/58/16
f 25/59/7 26/60/7 27/61/7 28/62/7 29/63/7 30/64/7 31/65/7 32/66/7
f 27/67/8 26/68/9 33/69/9 34/70/8
f 26/68/9 25/71/10 35/72/10 33/69/9
f 25/71/10 32/73/11 36/74/11 35/72/10
f 32/73/11 31/75/12 37/76/12 36/74/11
f 31/75/12 30/77/13 38/78/13 37/76/12
f 30/77/13 29/79/14 39/80/14 38/78/13
f 29/81/14 28/82/15 40/83/15 39/84/14
f 28/82/15 27/67/8 34/70/8 40/83/15
f 37/85/16 38/86/16 39/87/16 40/88/16 34/89/16 33/90/16 35/91/16 36/92/16
o Door_Handle
v 38.838799 -0.154304 95.180496
v 38.838799 5.730496 95.180496
v 38.491699 5.730496 94.342499
v 38.491699 -0.079204 94.342499
v 39.676701 -0.335804 95.527496
v 39.676701 5.730496 95.527496
v 40.514599 -0.517304 95.180496
v 40.514599 5.730496 95.180496
v 40.861698 -0.592404 94.342499
v 40.861698 5.730496 94.342499
v 40.514599 -0.517304 93.504601
v 40.514599 5.730496 93.504601
v 39.676701 -0.335804 93.157501
v 39.676701 5.730496 93.157501
v 38.838799 -0.154304 93.504601
v 38.838799 5.730496 93.504601
v 38.359600 -1.208704 95.180496
v 38.111599 -0.915604 94.342499
v 38.958500 -1.916204 95.527496
v 39.557301 -2.623704 95.180496
v 39.805401 -2.916804 94.342499
v 39.557301 -2.623704 93.504601
v 38.958500 -1.916204 93.157501
v 38.359600 -1.208704 93.504601
v 37.430901 -1.456304 95.180496
v 37.385399 -1.109204 94.342499
v 37.540699 -2.294204 95.527496
v 37.650501 -3.132104 95.180496
v 37.695999 -3.479204 94.342499
v 37.650501 -3.132104 93.504601
v 37.540699 -2.294204 93.157501
v 37.430901 -1.456304 93.504601
v 29.216200 -1.456304 95.180496
v 29.262699 -1.109204 94.342499
v 29.103901 -2.294204 95.527496
v 28.991699 -3.132104 95.180496
v 28.945200 -3.479204 94.342499
v 28.991699 -3.132104 93.504601
v 29.103901 -2.294204 93.157501
v 29.216200 -1.456304 93.504601
v 28.284500 -1.202104 95.180496
v 28.512699 -0.904604 94.342499
v 27.733500 -1.920404 95.527496
v 27.182501 -2.638604 95.180496
v 26.954300 -2.936104 94.342499
v 27.182501 -2.638604 93.504601
v 27.733500 -1.920404 93.157501
v 28.284500 -1.202104 93.504601
v 27.857599 -0.471004 95.180496
v 28.204700 -0.377104 94.342499
v 27.019699 -0.697604 95.527496
v 26.181801 -0.924304 95.180496
v 25.834700 -1.018204 94.342499
v 26.181801 -0.924304 93.504601
v 27.019699 -0.697604 93.157501
v 27.857599 -0.471004 93.504601
v 27.857599 1.877796 95.180496
v 28.204700 1.877796 94.342499
v 27.019699 1.877796 95.527496
v 26.181801 1.877796 95.180496
v 25.834700 1.877796 94.342499
v 26.181801 1.877796 93.504601
v 27.019699 1.877796 93.157501
v 27.857599 1.877796 93.504601
v 38.838799 20.044395 95.180496
v 38.491699 19.969196 94.342499
v 38.491699 14.159596 94.342499
v 38.838799 14.159596 95.180496
v 39.676701 20.225897 95.527496
v 39.676701 14.159596 95.527496
v 40.514599 20.407396 95.180496
v 40.514599 14.159596 95.180496
v 40.861698 20.482496 94.342499
v 40.861698 14.159596 94.342499
v 40.514599 20.407396 93.504601
v 40.514599 14.159596 93.504601
v 39.676701 20.225897 93.157501
v 39.676701 14.159596 93.157501
v 38.838799 20.044395 93.504601
v 38.838799 14.159596 93.504601
v 38.359600 21.098797 95.180496
v 38.111599 20.805696 94.342499
v 38.958500 21.806295 95.527496
v 39.557301 22.513796 95.180496
v 39.805401 22.806896 94.342499
v 39.557301 22.513796 93.504601
v 38.958500 21.806295 93.157501
v 38.359600 21.098797 93.504601
v 37.430901 21.346395 95.180496
v 37.385399 20.999296 94.342499
v 37.540699 22.184296 95.527496
v 37.650501 23.022196 95.180496
v 37.695999 23.369297 94.342499
v 37.650501 23.022196 93.504601
v 37.540699 22.184296 93.157501
v 37.430901 21.346395 93.504601
v 29.216200 21.346395 95.180496
v 29.262699 20.999296 94.342499
v 29.103901 22.184296 95.527496
v 28.991699 23.022196 95.180496
v 28.945200 23.369297 94.342499
v 28.991699 23.022196 93.504601
v 29.103901 22.184296 93.157501
v 29.216200 21.346395 93.504601
v 28.284500 21.092196 95.180496
v 28.512699 20.794697 94.342499
v 27.733500 21.810495 95.527496
v 27.182600 22.528696 95.180496
v 26.954300 22.826197 94.342499
v 27.182600 22.528696 93.504601
v 27.733500 21.810495 93.157501
v 28.284500 21.092196 93.504601
v 27.857599 20.360996 95.180496
v 28.204700 20.267096 94.342499
v 27.019699 20.587696 95.527496
v 26.181801 20.814396 95.180496
v 25.834700 20.908297 94.342499
v 26.181801 20.814396 93.504601
v 27.019699 20.587696 93.157501
v 27.857599 20.360996 93.504601
v 27.857599 18.012196 95.180496
v 28.204700 18.012196 94.342499
v 27.019699 18.012196 95.527496
v 26.181801 18.012196 95.180496
v 25.834700 18.012196 94.342499
v 26.181801 18.012196 93.504601
v 27.019699 18.012196 93.157501
v 27.857599 18.012196 93.504601
vt 0.874400 0.964300
vt 0.871600 0.963100
vt 0.870400 0.960300
vt 0.874400 0.956400
vt 0.877200 0.957500
vt 0.878300 0.960300
vt 0.877200 0.963100
vt 0.871600 0.957500
vt 0.874400 0.964300
vt 0.870400 0.960300
vt 0.871600 0.963100
vt 0.877200 0.957500
vt 0.874400 0.956400
vt 0.877200 0.963100
vt 0.878300 0.960300
vt 0.871600 0.957500
vt 0.740600 0.727100
vt 0.740600 0.708700
vt 0.743600 0.708700
vt 0.743600 0.727100
vt 0.737500 0.727100
vt 0.737500 0.708700
vt 0.734400 0.727100
vt 0.734400 0.708700
vt 0.731400 0.727100
vt 0.731400 0.708700
vt 0.728300 0.727100
vt 0.728300 0.708700
vt 0.725300 0.727100
vt 0.725300 0.708700
vt 0.722200 0.727100
vt 0.722200 0.708700
vt 0.719100 0.727100
vt 0.719100 0.708700
vt 0.740600 0.733100
vt 0.743600 0.733100
vt 0.737500 0.733100
vt 0.734400 0.733100
vt 0.731400 0.733100
vt 0.728300 0.733100
vt 0.725300 0.733100
vt 0.722200 0.733100
vt 0.719100 0.733100
vt 0.740600 0.738900
vt 0.743600 0.738900
vt 0.737500 0.738900
vt 0.734400 0.738900
vt 0.731400 0.738900
vt 0.728300 0.738900
vt 0.725300 0.738900
vt 0.722200 0.738900
vt 0.719100 0.738900
vt 0.740600 0.764100
vt 0.743600 0.764100
vt 0.737500 0.764100
vt 0.734400 0.764100
vt 0.731400 0.764100
vt 0.728300 0.764100
vt 0.725300 0.764100
vt 0.722200 0.764100
vt 0.719100 0.764100
vt 0.740600 0.769700
vt 0.743600 0.769700
vt 0.737500 0.769700
vt 0.734400 0.769700
vt 0.731400 0.769700
vt 0.728300 0.769700
vt 0.725300 0.769700
vt 0.722200 0.769700
vt 0.719100 0.769700
vt 0.740600 0.775700
vt 0.743600 0.775700
vt 0.737500 0.775700
vt 0.734400 0.775700
vt 0.731400 0.775700
vt 0.728300 0.775700
vt 0.725300 0.775700
vt 0.722200 0.775700
vt 0.719100 0.775700
vt 0.740600 0.784600
vt 0.743600 0.784600
vt 0.737500 0.784600
vt 0.734400 0.784600
vt 0.731400 0.784600
vt 0.728300 0.784600
vt 0.725300 0.784600
vt 0.722200 0.784600
vt 0.719100 0.784600
vt 0.740600 0.727100
vt 0.743600 0.727100
vt 0.743600 0.708700
vt 0.740600 0.708700
vt 0.737500 0.727100
vt 0.737500 0.708700
vt 0.734400 0.727100
vt 0.734400 0.708700
vt 0.731400 0.727100
vt 0.731400 0.708700
vt 0.728300 0.727100
vt 0.728300 0.708700
vt 0.725300 0.727100
vt 0.725300 0.708700
vt 0.722200 0.727100
vt 0.722200 0.708700
vt 0.719100 0.727100
vt 0.719100 0.708700
vt 0.740600 0.733100
vt 0.743600 0.733100
vt 0.737500 0.733100
vt 0.734400 0.733100
vt 0.731400 0.733100
vt 0.728300 0.733100
vt 0.725300 0.733100
vt 0.722200 0.733100
vt 0.719100 0.733100
vt 0.740600 0.738900
vt 0.743600 0.738900
vt 0.737500 0.738900
vt 0.734400 0.738900
vt 0.731400 0.738900
vt 0.728300 0.738900
vt 0.725300 0.738900
vt 0.722200 0.738900
vt 0.719100 0.738900
vt 0.740600 0.764100
vt 0.743600 0.764100
vt 0.737500 0.764100
vt 0.734400 0.764100
vt 0.731400 0.764100
vt 0.728300 0.764100
vt 0.725300 0.764100
vt 0.722200 0.764100
vt 0.719100 0.764100
vt 0.740600 0.769700
vt 0.743600 0.769700
vt 0.737500 0.769700
vt 0.734400 0.769700
vt 0.731400 0.769700
vt 0.728300 0.769700
vt 0.725300 0.769700
vt 0.722200 0.769700
vt 0.719100 0.769700
vt 0.740600 0.775700
vt 0.743600 0.775700
vt 0.737500 0.775700
vt 0.734400 0.775700
vt 0.731400 0.775700
vt 0.728300 0.775700
vt 0.725300 0.775700
vt 0.722200 0.775700
vt 0.719100 0.775700
vt 0.740600 0.784600
vt 0.743600 0.784600
vt 0.737500 0.784600
vt 0.734400 0.784600
vt 0.731400 0.784600
vt 0.728300 0.784600
vt 0.725300 0.784600
vt 0.722200 0.784600
vt 0.719100 0.784600
vn 0.0000 1.0000 0.0000
vn 0.0000 -1.0000 -0.0000
vn -0.6578 0.1425 0.7396
vn -0.7071 0.0000 0.7071
vn -1.0000 0.0000 -0.0000
vn -0.9773 0.2117 -0.0000
vn 0.0497 -0.0108 0.9987
vn 0.0000 0.0000 1.0000
vn 0.7094 -0.1536 0.6879
vn 0.7071 0.0000 0.7071
vn 0.9773 -0.2117 -0.0000
vn 1.0000 0.0000 -0.0000
vn 0.7094 -0.1536 -0.6878
vn 0.7071 0.0000 -0.7071
vn 0.0497 -0.0108 -0.9987
vn 0.0000 0.0000 -1.0000
vn -0.6578 0.1425 -0.7396
vn -0.7071 0.0000 -0.7071
vn -0.3978 0.4701 0.7879
vn -0.6461 0.7633 -0.0000
vn 0.0631 -0.0746 0.9952
vn 0.4720 -0.5577 0.6828
vn 0.6461 -0.7633 -0.0000
vn 0.4720 -0.5577 -0.6828
vn 0.0632 -0.0746 -0.9952
vn -0.3979 0.4701 -0.7879
vn -0.0894 0.6825 0.7254
vn -0.1299 0.9915 -0.0000
vn 0.0041 -0.0312 0.9995
vn 0.0936 -0.7141 0.6937
vn 0.1299 -0.9915 -0.0000
vn 0.0936 -0.7141 -0.6937
vn 0.0041 -0.0312 -0.9995
vn -0.0894 0.6825 -0.7254
vn 0.0913 0.6817 0.7259
vn 0.1328 0.9911 -0.0000
vn -0.0043 -0.0319 0.9995
vn -0.0956 -0.7141 0.6935
vn -0.1328 -0.9911 -0.0000
vn -0.0956 -0.7141 -0.6935
vn -0.0043 -0.0319 -0.9995
vn 0.0913 0.6817 -0.7259
vn 0.3844 0.5011 0.7754
vn 0.6086 0.7935 -0.0000
vn -0.0534 -0.0697 0.9961
vn -0.4449 -0.5800 0.6824
vn -0.6086 -0.7934 -0.0000
vn -0.4449 -0.5800 -0.6824
vn -0.0534 -0.0697 -0.9961
vn 0.3844 0.5011 -0.7753
vn 0.6393 0.1730 0.7492
vn 0.9653 0.2612 -0.0000
vn -0.0601 -0.0162 0.9981
vn -0.7030 -0.1902 0.6853
vn -0.9653 -0.2611 -0.0000
vn -0.7030 -0.1902 -0.6853
vn -0.0601 -0.0162 -0.9981
vn 0.6394 0.1730 -0.7492
vn -0.6578 -0.1425 0.7396
vn -0.9773 -0.2117 -0.0000
vn 0.0497 0.0108 0.9987
vn 0.7094 0.1536 0.6879
vn 0.9773 0.2117 -0.0000
vn 0.7094 0.1536 -0.6878
vn 0.0497 0.0108 -0.9987
vn -0.6578 -0.1425 -0.7396
vn -0.3978 -0.4701 0.7879
vn -0.6461 -0.7633 -0.0000
vn 0.0631 0.0746 0.9952
vn 0.4720 0.5577 0.6828
vn 0.6461 0.7633 -0.0000
vn 0.4720 0.5577 -0.6828
vn 0.0632 0.0746 -0.9952
vn -0.3979 -0.4701 -0.7879
vn -0.0894 -0.6825 0.7254
vn -0.1299 -0.9915 -0.0000
vn 0.0041 0.0312 0.9995
vn 0.0936 0.7141 0.6937
vn 0.1299 0.9915 -0.0000
vn 0.0936 0.7141 -0.6937
vn 0.0041 0.0312 -0.9995
vn -0.0894 -0.6825 -0.7254
vn 0.0913 -0.6817 0.7259
vn 0.1328 -0.9911 -0.0000
vn -0.0043 0.0319 0.9995
vn -0.0956 0.7141 0.6935
vn -0.1328 0.9911 -0.0000
vn -0.0956 0.7141 -0.6935
vn -0.0043 0.0319 -0.9995
vn 0.0913 -0.6817 -0.7259
vn 0.3844 -0.5011 0.7754
vn 0.6086 -0.7934 -0.0000
vn -0.0534 0.0697 0.9961
vn -0.4449 0.5800 0.6824
vn -0.6087 0.7934 -0.0000
vn -0.4449 0.5800 -0.6824
vn -0.0535 0.0697 -0.9961
vn 0.3844 -0.5011 -0.7754
vn 0.6393 -0.1730 0.7492
vn 0.9653 -0.2612 -0.0000
vn -0.0601 0.0162 0.9981
vn -0.7030 0.1902 0.6853
vn -0.9653 0.2611 -0.0000
vn -0.7030 0.1902 -0.6853
vn -0.0601 0.0162 -0.9981
vn 0.6394 -0.1730 -0.7492
usemtl door
s off
f 99/93/17 97/94/17 98/95/17
f 98/95/17 103/96/17 102/97/17 101/98/17 100/99/17 99/93/17
f 104/100/17 103/96/17 98/95/17
f 163/101/18 162/102/18 161/103/18
f 166/104/18 167/105/18 162/102/18 163/101/18 164/106/18 165/107/18
f 168/108/18 162/102/18 167/105/18
s 1
f 41/109/19 42/110/20 43/111/21 44/112/22
f 45/113/23 46/114/24 42/110/20 41/109/19
f 47/115/25 48/116/26 46/114/24 45/113/23
f 49/117/27 50/118/28 48/116/26 47/115/25
f 51/119/29 52/120/30 50/118/28 49/117/27
f 53/121/31 54/122/32 52/120/30 51/119/29
f 55/123/33 56/124/34 54/122/32 53/121/31
f 44/125/22 43/126/21 56/124/34 55/123/33
f 57/127/35 41/109/19 44/112/22 58/128/36
f 59/129/37 45/113/23 41/109/19 57/127/35
f 60/130/38 47/115/25 45/113/23 59/129/37
f 61/131/39 49/117/27 47/115/25 60/130/38
f 62/132/40 51/119/29 49/117/27 61/131/39
f 63/133/41 53/121/31 51/119/29 62/132/40
f 64/134/42 55/123/33 53/121/31 63/133/41
f 58/135/36 44/125/22 55/123/33 64/134/42
f 65/136/43 57/127/35 58/128/36 66/137/44
f 67/138/45 59/129/37 57/127/35 65/136/43
f 68/139/46 60/130/38 59/129/37 67/138/45
f 69/140/47 61/131/39 60/130/38 68/139/46
f 70/141/48 62/132/40 61/131/39 69/140/47
f 71/142/49 63/133/41 62/132/40 70/141/48
f 72/143/50 64/134/42 63/133/41 71/142/49
f 66/144/44 58/135/36 64/134/42 72/143/50
f 73/145/51 65/136/43 66/137/44 74/146/52
f 75/147/53 67/138/45 65/136/43 73/145/51
f 76/148/54 68/139/46 67/138/45 75/147/53
f 77/149/55 69/140/47 68/139/46 76/148/54
f 78/150/56 70/141/48 69/140/47 77/149/55
f 79/151/57 71/142/49 70/141/48 78/150/56
f 80/152/58 72/143/50 71/142/49 79/151/57
f 74/153/52 66/144/44 72/143/50 80/152/58
f 81/154/59 73/145/51 74/146/52 82/155/60
f 83/156/61 75/147/53 73/145/51 81/154/59
f 84/157/62 76/148/54 75/147/53 83/156/61
f 85/158/63 77/149/55 76/148/54 84/157/62
f 86/159/64 78/150/56 77/149/55 85/158/63
f 87/160/65 79/151/57 78/150/56 86/159/64
f 88/161/66 80/152/58 79/151/57 87/160/65
f 82/162/60 74/153/52 80/152/58 88/161/66
f 89/163/67 81/154/59 82/155/60 90/164/68
f 91/165/69 83/156/61 81/154/59 89/163/67
f 92/166/70 84/157/62 83/156/61 91/165/69
f 93/167/71 85/158/63 84/157/62 92/166/70
f 94/168/72 86/159/64 85/158/63 93/167/71
f 95/169/73 87/160/65 86/159/64 94/168/72
f 96/170/74 88/161/66 87/160/65 95/169/73
f 90/171/68 82/162/60 88/161/66 96/170/74
f 97/172/26 89/163/67 90/164/68 98/173/28
f 99/174/24 91/165/69 89/163/67 97/172/26
f 100/175/20 92/166/70 91/165/69 99/174/24
f 101/176/21 93/167/71 92/166/70 100/175/20
f 102/177/34 94/168/72 93/167/71 101/176/21
f 103/178/32 95/169/73 94/168/72 102/177/34
f 104/179/30 96/170/74 95/169/73 103/178/32
f 98/180/28 90/171/68 96/170/74 104/179/30
f 105/181/75 106/182/76 107/183/21 108/184/20
f 109/185/77 105/181/75 108/184/20 110/186/24
f 111/187/78 109/185/77 110/186/24 112/188/26
f 113/189/79 111/187/78 112/188/26 114/190/28
f 115/191/80 113/189/79 114/190/28 116/192/30
f 117/193/81 115/191/80 116/192/30 118/194/32
f 119/195/82 117/193/81 118/194/32 120/196/34
f 106/197/76 119/195/82 120/196/34 107/198/21
f 121/199/83 122/200/84 106/182/76 105/181/75
f 123/201/85 121/199/83 105/181/75 109/185/77
f 124/202/86 123/201/85 109/185/77 111/187/78
f 125/203/87 124/202/86 111/187/78 113/189/79
f 126/204/88 125/203/87 113/189/79 115/191/80
f 127/205/89 126/204/88 115/191/80 117/193/81
f 128/206/90 127/205/89 117/193/81 119/195/82
f 122/207/84 128/206/90 119/195/82 106/197/76
f 129/208/91 130/209/92 122/200/84 121/199/83
f 131/210/93 129/208/91 121/199/83 123/201/85
f 132/211/94 131/210/93 123/201/85 124/202/86
f 133/212/95 132/211/94 124/202/86 125/203/87
f 134/213/96 133/212/95 125/203/87 126/204/88
f 135/214/97 134/213/96 126/204/88 127/205/89
f 136/215/98 135/214/97 127/205/89 128/206/90
f 130/216/92 136/215/98 128/206/90 122/207/84
f 137/217/99 138/218/100 130/209/92 129/208/91
f 139/219/101 137/217/99 129/208/91 131/210/93
f 140/220/102 139/219/101 131/210/93 132/211/94
f 141/221/103 140/220/102 132/211/94 133/212/95
f 142/222/104 141/221/103 133/212/95 134/213/96
f 143/223/105 142/222/104 134/213/96 135/214/97
f 144/224/106 143/223/105 135/214/97 136/215/98
f 138/225/100 144/224/106 136/215/98 130/216/92
f 145/226/107 146/227/108 138/218/100 137/217/99
f 147/228/109 145/226/107 137/217/99 139/219/101
f 148/229/110 147/228/109 139/219/101 140/220/102
f 149/230/111 148/229/110 140/220/102 141/221/103
f 150/231/112 149/230/111 141/221/103 142/222/104
f 151/232/113 150/231/112 142/222/104 143/223/105
f 152/233/114 151/232/113 143/223/105 144/224/106
f 146/234/108 152/233/114 144/224/106 138/225/100
f 153/235/115 154/236/116 146/227/108 145/226/107
f 155/237/117 153/235/115 145/226/107 147/228/109
f 156/238/118 155/237/117 147/228/109 148/229/110
f 157/239/119 156/238/118 148/229/110 149/230/111
f 158/240/120 157/239/119 149/230/111 150/231/112
f 159/241/121 158/240/120 150/231/112 151/232/113
f 160/242/122 159/241/121 151/232/113 152/233/114
f 154/243/116 160/242/122 152/233/114 146/234/108
f 161/244/26 162/245/28 154/236/116 153/235/115
f 163/246/24 161/244/26 153/235/115 155/237/117
f 164/247/20 163/246/24 155/237/117 156/238/118
f 165/248/21 164/247/20 156/238/118 157/239/119
f 166/249/34 165/248/21 157/239/119 158/240/120
f 167/250/32 166/249/34 158/240/120 159/241/121
f 168/251/30 167/250/32 159/241/121 160/242/122
f 162/252/28 168/251/30 160/242/122 154/243/116
