# Blender v2.79 (sub 0) OBJ File: ''
# www.blender.org
mtllib door.mtl
o Door_Frame
v 44.207600 0.361991 201.963699
v -44.207600 0.361991 201.963699
v -44.207600 5.134091 201.963699
v 44.207600 5.134191 201.963699
v -44.207600 0.362100 0.000000
v -44.207600 5.134200 0.000000
v 53.390499 15.240491 210.676300
v -53.390499 15.240491 210.676300
v -53.390499 -2.967909 210.676300
v 53.390499 -2.967909 210.676300
v -53.390499 15.240500 0.000001
v -53.390499 -2.967900 -0.000000
v -45.700001 -2.967909 203.199997
v 45.700001 -2.967909 203.199997
v 45.700001 15.240492 203.199997
v -45.700001 15.240492 203.199997
v -45.700001 -2.967900 -0.000000
v -45.700001 0.362100 0.000000
v -45.700001 15.240500 0.000001
v -45.700001 5.134200 0.000000
v -45.700001 0.361991 203.199997
v 45.700001 0.361991 203.199997
v 45.700001 5.134191 203.199997
v -45.700001 5.134091 203.199997
v 44.207600 5.134200 0.000000
v 44.207600 0.362100 0.000000
v 53.390499 -2.967900 -0.000000
v 53.390499 15.240500 0.000001
v 45.700001 -2.967900 -0.000000
v 45.700001 0.362100 0.000000
v 45.700001 5.134200 0.000000
v 45.700001 15.240500 0.000001
vt 0.824500 0.005800
vt 0.824500 0.307100
vt 0.819800 0.307100
vt 0.819800 0.005800
vt 0.824600 0.984100
vt 0.819700 0.984100
vt 0.723700 0.818300
vt 0.723700 0.834200
vt 0.718700 0.834200
vt 0.718700 0.818300
vt 0.799100 0.984100
vt 0.799200 0.307100
vt 0.803800 0.307100
vt 0.803900 0.984100
vt 0.799200 0.005800
vt 0.803800 0.005800
vt 0.824500 0.307100
vt 0.819800 0.307100
vt 0.819700 0.984100
vt 0.824600 0.984100
vt 0.723700 0.818300
vt 0.718700 0.818300
vt 0.718700 0.834200
vt 0.723700 0.834200
vt 0.799100 0.984100
vt 0.803900 0.984100
vt 0.803800 0.307100
vt 0.799200 0.307100
vt 0.521100 0.323800
vt 0.521100 0.679600
vt 0.460400 0.679600
vt 0.460400 0.323800
vt 0.068000 0.006500
vt 0.068000 0.679800
vt 0.007400 0.679800
vt 0.007400 0.006500
vt 0.881700 0.015400
vt 0.881700 0.371100
vt 0.856800 0.345500
vt 0.856800 0.041000
vt 0.856000 0.719100
vt 0.856000 0.363400
vt 0.880900 0.389000
vt 0.880900 0.693500
vt 0.898200 0.703800
vt 0.898200 0.002000
vt 0.923800 0.002000
vt 0.923800 0.678900
vt 0.723700 0.807300
vt 0.749300 0.807300
vt 0.749300 0.867900
vt 0.723700 0.867900
vt 0.945200 0.711200
vt 0.945200 0.009300
vt 0.970900 0.034300
vt 0.970900 0.711200
vt 0.835600 0.005800
vt 0.835600 0.307100
vt 0.765400 0.307100
vt 0.765400 0.005800
vt 0.835600 0.984100
vt 0.765400 0.984100
vt 0.068000 0.006500
vt 0.007400 0.006500
vt 0.007400 0.679800
vt 0.068000 0.679800
vt 0.898200 0.703800
vt 0.923800 0.678900
vt 0.923800 0.002000
vt 0.898200 0.002000
vt 0.749300 0.807300
vt 0.723700 0.807300
vt 0.723700 0.867900
vt 0.749300 0.867900
vt 0.945200 0.711200
vt 0.970900 0.711200
vt 0.970900 0.034300
vt 0.945200 0.009300
vt 0.835600 0.307100
vt 0.835600 0.984100
vt 0.765400 0.984100
vt 0.765400 0.307100
vn 0.0000 -1.0000 -0.0000
vn 0.0000 0.0000 -1.0000
vn 0.0000 1.0000 0.0000
vn 1.0000 0.0000 0.0000
vn 0.0000 0.0000 1.0000
vn -1.0000 0.0000 0.0000
usemtl door
s off
f 22/1/1 21/2/1 2/3/1 1/4/1
f 21/2/1 18/5/1 5/6/1 2/3/1
f 18/7/2 20/8/2 6/9/2 5/10/2
f 20/11/3 24/12/3 3/13/3 6/14/3
f 24/12/3 23/15/3 4/16/3 3/13/3
f 22/17/1 1/18/1 26/19/1 30/20/1
f 30/21/2 26/22/2 25/23/2 31/24/2
f 31/25/3 25/26/3 4/27/3 23/28/3
s 1
f 1/4/2 2/3/2 3/13/2 4/16/2
f 2/3/4 5/6/4 6/14/4 3/13/4
f 7/29/5 8/30/5 9/31/5 10/32/5
f 8/33/6 11/34/6 12/35/6 9/36/6
f 10/37/1 9/38/1 13/39/1 14/40/1
f 8/41/3 7/42/3 15/43/3 16/44/3
f 9/45/1 12/46/1 17/47/1 13/48/1
f 18/7/2 17/49/2 12/50/2 11/51/2 19/52/2 20/8/2
f 11/53/3 8/54/3 16/55/3 19/56/3
f 14/57/2 13/58/2 21/2/2 22/1/2
f 16/59/2 15/60/2 23/15/2 24/12/2
f 13/58/4 17/61/4 18/5/4 21/2/4
f 19/62/4 16/59/4 24/12/4 20/11/4
f 1/18/6 4/27/6 25/26/6 26/19/6
f 7/63/4 10/64/4 27/65/4 28/66/4
f 10/67/1 14/68/1 29/69/1 27/70/1
f 27/71/2 29/72/2 30/21/2 31/24/2 32/73/2 28/74/2
f 28/75/3 32/76/3 15/77/3 7/78/3
f 14/79/6 22/17/6 30/20/6 29/80/6
f 32/81/6 31/25/6 23/28/6 15/82/6
