# Blender v2.79 (sub 0) OBJ File: ''
# www.blender.org
mtllib cubicle_wall.mtl
o closed
v 90.000000 -3.000000 -0.000000
v 90.000000 3.000000 0.000000
v 90.000000 2.999993 150.000000
v 90.000000 -3.000007 150.000000
v 60.000000 2.999993 150.000000
v 60.000000 -3.000007 150.000000
v 60.000000 3.000000 0.000000
v 60.000000 -3.000000 -0.000000
v 30.000000 -3.000000 -0.000000
v 30.000000 -3.000007 150.000000
v 30.000000 2.999993 150.000000
v 30.000000 3.000000 0.000000
vt 0.330800 0.935700
vt 0.330800 0.002000
vt 0.517500 0.002000
vt 0.517500 0.935700
vt 0.330800 0.935700
vt 0.517500 0.935700
vt 0.517500 0.002000
vt 0.330800 0.002000
vt 0.330800 0.935700
vt 0.330800 0.002000
vt 0.330800 0.935700
vt 0.330800 0.002000
vt 0.268500 0.002000
vt 0.268500 0.935700
vt 0.330800 0.998000
vt 0.517500 0.998000
vt 0.268500 0.002000
vt 0.268500 0.935700
vt 0.330800 0.998000
vn 0.0000 1.0000 0.0000
vn 0.0000 -1.0000 -0.0000
vn 1.0000 0.0000 0.0000
vn 0.0000 0.0000 1.0000
vn -1.0000 0.0000 0.0000
usemtl cubicle_wall
s off
f 3/1/1 2/2/1 7/3/1 5/4/1
f 4/5/2 6/6/2 8/7/2 1/8/2
f 11/9/1 5/4/1 7/3/1 12/10/1
f 10/11/2 9/12/2 8/7/2 6/6/2
s 1
f 1/13/3 2/2/3 3/1/3 4/14/3
f 4/15/4 3/1/4 5/4/4 6/16/4
f 9/17/5 10/18/5 11/9/5 12/10/5
f 10/19/4 6/16/4 5/4/4 11/9/4
