# Blender v2.79 (sub 0) OBJ File: ''
# www.blender.org
mtllib cubicle_wall.mtl
o corner
v -30.000000 3.000000 0.000000
v -33.000000 2.196200 0.000000
v -33.000000 2.196093 150.000000
v -30.000000 2.999993 150.000000
v -35.196201 0.000000 0.000000
v -35.196201 -0.000007 150.000000
v -36.000000 -3.000000 -0.000000
v -36.000000 -3.000007 150.000000
v -30.000000 -3.000007 150.000000
v -30.000000 -3.000000 -0.000000
vt 0.593400 0.999700
vt 0.564200 0.991900
vt 0.593400 0.941300
vt 0.542800 0.970500
vt 0.535000 0.941300
vt 0.597300 0.935700
vt 0.535000 0.935700
vt 0.535000 0.002000
vt 0.597300 0.002000
vt 0.756200 0.935700
vt 0.693900 0.935700
vt 0.693900 0.002000
vt 0.756200 0.002000
vt 0.629500 0.002000
vt 0.629500 0.935700
vt 0.661700 0.002000
vt 0.661700 0.935700
vn 0.0000 0.0000 1.0000
vn 1.0000 0.0000 0.0000
vn 0.0000 -1.0000 -0.0000
vn -0.2588 0.9659 0.0000
vn -0.5000 0.8660 0.0000
vn -0.8660 0.5000 0.0000
vn -0.9659 0.2588 0.0000
usemtl cubicle_wall
s off
f 4/1/1 3/2/1 9/3/1
f 3/2/1 6/4/1 9/3/1
f 6/4/1 8/5/1 9/3/1
f 4/6/2 9/7/2 10/8/2 1/9/2
f 9/10/3 8/11/3 7/12/3 10/13/3
s 1
f 1/9/4 2/14/5 3/15/5 4/6/4
f 2/14/5 5/16/6 6/17/6 3/15/5
f 5/16/6 7/12/7 8/11/7 6/17/6
