# 3ds Max Wavefront OBJ Exporter v0.97b - (c)2007 guruware
# File Created: 08.02.2018 15:27:33

mtllib cubicle_corner.mtl

#
# object cubicle_corner
#

v  -2.5000 -2.5000 132.4851
v  0.0000 0.0000 132.4851
v  -191.2324 0.0000 132.4851
v  -191.2324 -2.5000 132.4851
v  -191.2324 0.0000 0.0000
v  -191.2324 -2.5000 0.0000
v  -5.1032 -2.5000 128.7616
v  -5.1032 -2.5000 106.0802
v  -2.5000 -2.5000 0.0000
v  -187.5305 -2.5000 106.0802
v  -187.5305 -2.5000 128.7616
v  -187.5305 0.0000 106.0802
v  -187.5305 0.0000 128.7616
v  -5.1032 0.0000 106.0802
v  -5.1032 0.0000 128.7616
v  -183.6371 -74.2406 0.0000
v  -177.6043 -74.2406 0.0000
v  -177.6043 -74.2406 75.6290
v  -183.6371 -74.2406 75.6290
v  -177.6043 -68.2078 0.0000
v  -177.6043 -68.2078 75.6290
v  -183.6371 -68.2078 0.0000
v  -183.6371 -68.2078 75.6290
v  -185.4661 -76.2000 73.6542
v  -185.4661 -76.2000 76.3458
v  -185.4661 -0.5699 76.2916
v  -185.4661 -0.5699 73.6000
v  -89.8842 -76.7040 73.6539
v  -98.7179 -76.2000 73.6542
v  -0.4000 -0.4000 73.6000
v  -84.4358 -78.3289 73.6535
v  -0.4000 -0.4000 76.2916
v  -98.7179 -76.2000 76.3458
v  -80.9075 -80.9075 73.6515
v  -80.9075 -80.9075 76.3431
v  -84.4358 -78.3289 76.3451
v  -89.8842 -76.7040 76.3455
v  0.0000 0.0000 -0.0000
v  -2.5000 -191.2324 132.4851
v  0.0000 -191.2324 132.4851
v  -2.5000 -191.2324 0.0000
v  0.0000 -191.2324 0.0000
v  -2.5000 -5.1032 106.0802
v  -2.5000 -5.1032 128.7616
v  -2.5000 -187.5306 128.7616
v  -2.5000 -187.5306 106.0802
v  0.0000 -187.5305 128.7616
v  0.0000 -187.5305 106.0802
v  0.0000 -5.1032 106.0802
v  0.0000 -5.1032 128.7616
v  -74.2406 -183.6371 0.0000
v  -74.2406 -183.6371 75.6290
v  -74.2405 -177.6043 75.6290
v  -74.2405 -177.6043 0.0000
v  -68.2078 -177.6043 75.6290
v  -68.2078 -177.6043 0.0000
v  -68.2078 -183.6371 75.6290
v  -68.2078 -183.6371 0.0000
v  -76.2000 -185.4661 73.6542
v  -0.5699 -185.4661 73.6000
v  -0.5699 -185.4661 76.2916
v  -76.2000 -185.4661 76.3458
v  -76.7040 -89.8842 73.6539
v  -78.3289 -84.4358 73.6535
v  -76.2000 -98.7179 73.6542
v  -76.2000 -98.7179 76.3458
v  -78.3289 -84.4358 76.3451
v  -76.7040 -89.8842 76.3455
# 68 vertices

vn 0.0000 0.0000 1.0000
vn -1.0000 0.0000 0.0000
vn 0.0000 -1.0000 0.0000
vn 1.0000 0.0000 0.0000
vn 0.0000 0.0000 -1.0000
vn -1.0000 -0.0000 0.0000
vn 0.0000 1.0000 0.0000
vn -0.0001 -0.0006 -1.0000
vn -0.0000 0.0007 1.0000
vn -0.0285 -0.9996 0.0000
vn -0.4444 -0.8958 0.0000
vn -0.7071 -0.7071 0.0000
vn -0.4444 -0.8959 0.0000
vn -0.1725 -0.9850 0.0000
vn -0.1726 -0.9850 0.0000
vn 0.0000 0.0007 1.0000
vn 0.0006 0.0000 1.0000
vn 0.0001 0.0006 1.0000
vn 0.0000 -0.0007 -1.0000
vn -0.0006 -0.0000 -1.0000
vn -1.0000 -0.0000 -0.0000
vn -0.0000 1.0000 0.0000
vn -0.0000 0.0000 1.0000
vn -0.0000 0.0000 -1.0000
vn -0.0000 -1.0000 -0.0000
vn -0.0006 -0.0001 -1.0000
vn 0.0007 -0.0000 1.0000
vn -0.9996 -0.0285 0.0000
vn -0.8958 -0.4444 0.0000
vn -0.8959 -0.4444 0.0000
vn -0.9850 -0.1725 0.0000
vn -0.9850 -0.1726 0.0000
vn 0.0007 0.0000 1.0000
vn 0.0000 0.0006 1.0000
vn 0.0006 0.0001 1.0000
vn -0.0007 0.0000 -1.0000
vn -0.0000 -0.0006 -1.0000
vn 1.0000 0.0000 -0.0000
# 38 vertex normals

vt 0.5548 0.7998 0.0000
vt 0.5548 0.0116 0.0000
vt 0.5653 0.0011 0.0000
vt 0.5653 0.7998 0.0000
vt 0.0015 0.8102 0.0000
vt 0.6067 0.8733 0.0000
vt 0.0015 0.7998 0.0000
vt 0.6067 0.7786 0.0000
vt 0.5393 0.0224 0.0000
vt 0.4445 0.0224 0.0000
vt 0.5967 0.1127 0.0000
vt 0.5967 0.8746 0.0000
vt 0.6067 0.0167 0.0000
vt 0.0015 0.0116 0.0000
vt 0.5393 0.7843 0.0000
vt 0.6171 0.7786 0.0000
vt 0.5863 0.8746 0.0000
vt 0.6171 0.0167 0.0000
vt 0.5863 0.1127 0.0000
vt 0.5863 0.0180 0.0000
vt 0.5967 0.0180 0.0000
vt 0.6171 0.8733 0.0000
vt 0.4445 0.7843 0.0000
vt 0.5548 0.8102 0.0000
vt 0.9460 0.5905 0.0000
vt 0.9712 0.5905 0.0000
vt 0.9712 0.9063 0.0000
vt 0.9460 0.9063 0.0000
vt 0.9964 0.5905 0.0000
vt 0.9964 0.9063 0.0000
vt 0.9208 0.5905 0.0000
vt 0.9208 0.9063 0.0000
vt 0.8956 0.5905 0.0000
vt 0.8956 0.9063 0.0000
vt 0.4277 0.8153 0.0000
vt 0.2357 0.9933 0.0000
vt 0.6623 0.7934 0.0000
vt 0.5141 0.6558 0.0000
vt 0.6408 0.0310 0.0000
vt 0.6406 0.3470 0.0000
vt 0.2232 0.9896 0.0000
vt 0.6293 0.3470 0.0000
vt 0.6295 0.0310 0.0000
vt 0.6293 0.7092 0.0000
vt 0.2030 0.9885 0.0000
vt 0.6631 0.0205 0.0000
vt 0.0049 0.8156 0.0000
vt 0.6406 0.7092 0.0000
vt 0.6293 0.7882 0.0000
vt 0.6293 0.7699 0.0000
vt 0.6406 0.7699 0.0000
vt 0.6406 0.7882 0.0000
vt 0.6293 0.7462 0.0000
vt 0.5141 0.6552 0.0000
vt 0.6406 0.7462 0.0000
vt 0.2437 0.9992 0.0000
vt 0.0049 0.9884 0.0000
vt 0.9790 0.3828 0.0000
vt 0.9790 0.0205 0.0000
vt 0.9878 0.4425 0.0000
vt 0.9986 0.4572 0.0000
vt 0.9811 0.4197 0.0000
vt 0.5138 0.6552 0.0000
vt 0.5138 0.6558 0.0000
vt 0.5142 0.6558 0.0000
vt 0.5142 0.6558 0.0000
vt 0.5142 0.6552 0.0000
vt 0.5142 0.6552 0.0000
vt 0.5548 0.7998 0.0000
vt 0.5548 0.0116 0.0000
vt 0.5653 0.0011 0.0000
vt 0.5653 0.7998 0.0000
vt 0.5548 0.8102 0.0000
vt 0.0015 0.8102 0.0000
vt 0.0015 0.7998 0.0000
vt 0.5393 0.0224 0.0000
vt 0.4445 0.0224 0.0000
vt 0.0015 0.0116 0.0000
vt 0.5393 0.7843 0.0000
vt 0.4445 0.7843 0.0000
vt 0.6067 0.8733 0.0000
vt 0.6067 0.7786 0.0000
vt 0.6171 0.7786 0.0000
vt 0.6171 0.8733 0.0000
vt 0.6067 0.0167 0.0000
vt 0.6171 0.0167 0.0000
vt 0.5967 0.1127 0.0000
vt 0.5967 0.8746 0.0000
vt 0.5863 0.8746 0.0000
vt 0.5863 0.1127 0.0000
vt 0.5863 0.0180 0.0000
vt 0.5967 0.0180 0.0000
vt 0.9460 0.5905 0.0000
vt 0.9712 0.5905 0.0000
vt 0.9712 0.9063 0.0000
vt 0.9460 0.9063 0.0000
vt 0.9964 0.5905 0.0000
vt 0.9964 0.9063 0.0000
vt 0.8956 0.5905 0.0000
vt 0.9208 0.5905 0.0000
vt 0.9208 0.9063 0.0000
vt 0.8956 0.9063 0.0000
vt 0.6408 0.0310 0.0000
vt 0.6406 0.3470 0.0000
vt 0.6293 0.3470 0.0000
vt 0.6295 0.0310 0.0000
vt 0.4277 0.8153 0.0000
vt 0.2357 0.9933 0.0000
vt 0.2232 0.9896 0.0000
vt 0.2030 0.9885 0.0000
vt 0.6623 0.7934 0.0000
vt 0.6631 0.0205 0.0000
vt 0.9790 0.3828 0.0000
vt 0.6293 0.7092 0.0000
vt 0.6406 0.7092 0.0000
vt 0.6293 0.7882 0.0000
vt 0.6293 0.7699 0.0000
vt 0.6406 0.7699 0.0000
vt 0.6406 0.7882 0.0000
vt 0.6293 0.7462 0.0000
vt 0.6406 0.7462 0.0000
vt 0.9790 0.0205 0.0000
vt 0.9878 0.4425 0.0000
vt 0.9986 0.4572 0.0000
vt 0.9811 0.4197 0.0000
vt 0.0049 0.8156 0.0000
vt 0.2437 0.9992 0.0000
vt 0.0049 0.9884 0.0000
vt 0.5141 0.6558 0.0000
vt 0.5141 0.6552 0.0000
vt 0.5138 0.6552 0.0000
vt 0.5138 0.6558 0.0000
vt 0.5142 0.6558 0.0000
vt 0.5142 0.6558 0.0000
vt 0.5142 0.6552 0.0000
vt 0.5142 0.6552 0.0000
# 136 texture coords

g cubicle_corner
usemtl cubicle_corner
s off
f 1/2/1 2/3/1 3/4/1 4/1/1
f 4/1/2 3/24/2 5/5/2 6/7/2
f 1/2/3 7/9/3 8/10/3 9/14/3
f 4/1/3 6/7/3 10/23/3 11/15/3
f 11/6/4 10/8/4 12/16/4 13/22/4
f 8/13/1 14/18/1 12/16/1 10/8/1
f 9/14/3 8/10/3 10/23/3 6/7/3
f 11/12/5 13/17/5 15/19/5 7/11/5
f 14/20/6 8/21/6 7/11/6 15/19/6
f 1/2/3 4/1/3 11/15/3 7/9/3
f 16/25/3 17/26/3 18/27/3 19/28/3
f 17/26/4 20/29/4 21/30/4 18/27/4
f 20/33/7 22/31/7 23/32/7 21/34/7
f 22/31/2 16/25/2 19/28/2 23/32/2
f 24/40/2 25/42/2 26/43/2 27/39/2
f 28/41/8 29/45/8 30/35/8 31/36/8
f 32/37/9 26/46/9 33/58/9
s 262144
f 33/44/10 25/42/3 24/40/3 29/48/10
f 31/51/11 34/52/12 35/49/12 36/50/13
f 37/53/14 28/55/15 31/51/11 36/50/13
s off
f 26/46/16 25/59/16 33/58/16
f 36/60/17 35/61/17 32/37/17
f 37/62/18 36/60/18 32/37/18 33/58/18
f 29/45/19 27/47/19 30/35/19
f 34/56/20 31/36/20 30/35/20
f 29/45/19 24/57/19 27/47/19
s 262144
f 33/44/10 29/48/10 28/55/15 37/53/14
s off
f 12/38/7 14/54/7 38/63/7 5/64/7
f 3/65/7 13/66/7 12/38/7 5/64/7
f 15/68/7 13/66/7 3/65/7 2/67/7
f 2/67/7 38/63/7 14/54/7 15/68/7
f 1/70/1 39/69/1 40/72/1 2/71/1
f 39/69/3 41/75/3 42/74/3 40/73/3
f 1/70/21 9/78/21 43/77/21 44/76/21
f 39/69/6 45/79/6 46/80/6 41/75/6
f 45/81/22 47/84/22 48/83/22 46/82/22
f 43/85/23 46/82/23 48/83/23 49/86/23
f 9/78/21 41/75/21 46/80/21 43/77/21
f 45/88/24 44/87/24 50/90/24 47/89/24
f 49/91/25 50/90/25 44/87/25 43/92/25
f 1/70/6 44/76/6 45/79/6 39/69/6
f 51/93/2 52/96/2 53/95/2 54/94/2
f 54/94/7 53/95/7 55/98/7 56/97/7
f 56/99/4 55/102/4 57/101/4 58/100/4
f 58/100/3 57/101/3 52/96/3 51/93/3
f 59/104/3 60/103/3 61/106/3 62/105/3
f 63/109/26 64/108/26 30/107/26 65/110/26
f 32/111/27 66/113/27 61/112/27
s 262144
f 66/114/28 65/115/28 59/104/2 62/105/2
f 64/118/29 67/117/30 35/116/12 34/119/12
f 68/120/31 67/117/30 64/118/29 63/121/32
s off
f 61/112/33 66/113/33 62/122/33
f 67/123/34 32/111/34 35/124/34
f 68/125/35 66/113/35 32/111/35 67/123/35
f 65/110/36 30/107/36 60/126/36
f 34/127/37 30/107/37 64/108/37
f 65/110/36 60/126/36 59/128/36
s 262144
f 66/114/28 68/120/31 63/121/32 65/115/28
s off
f 48/129/4 42/132/4 38/131/4 49/130/4
f 40/133/4 42/132/4 48/129/4 47/134/4
f 50/136/38 2/135/38 40/133/38 47/134/38
f 2/135/4 50/136/4 49/130/4 38/131/4
# 50 polygons - 12 triangles

